<?xml version="1.0" encoding="utf-8"?>
<!-- Generator: Adobe Illustrator 26.2.1, SVG Export Plug-In . SVG Version: 6.00 Build 0)  -->
<svg version="1.1" id="Calque_1" xmlns="http://www.w3.org/2000/svg" xmlns:xlink="http://www.w3.org/1999/xlink" x="0px" y="0px"
	 viewBox="0 0 700 700" style="enable-background:new 0 0 700 700;" xml:space="preserve">
<style type="text/css">
	.st0{fill-rule:evenodd;clip-rule:evenodd;}
</style>
<g>
	<path class="st0" d="M350,150c-110.5,0-200,89.5-200,200s89.5,200,200,200s200-89.5,200-200S460.5,150,350,150z M110,350
		c0-132.6,107.4-240,240-240s240,107.4,240,240S482.5,590,350,590S110,482.5,110,350z"/>
	<path class="st0" d="M350,210c11,0,20,9,20,20v111.7l64.1,64.1c7.8,7.8,7.8,20.5,0,28.3c-7.8,7.8-20.5,7.8-28.3,0l-70-70
		c-3.8-3.8-5.9-8.8-5.9-14.1V230C330,218.9,339,210,350,210L350,210z"/>
</g>
</svg>
