<?xml version="1.0" encoding="utf-8"?>
<!-- Generator: Adobe Illustrator 26.2.1, SVG Export Plug-In . SVG Version: 6.00 Build 0)  -->
<svg version="1.1" id="Calque_1" xmlns="http://www.w3.org/2000/svg" xmlns:xlink="http://www.w3.org/1999/xlink" x="0px" y="0px"
	 viewBox="0 0 700 700" style="enable-background:new 0 0 700 700;" xml:space="preserve">
<g>
	<path d="M350.3,301.2c9,0,17.4-3.4,23.5-9.5l124.9-124.9c12.9-12.9,12.9-34.2,0-47s-34.2-12.9-47,0L350.8,220.5L250,119.7
		c-12.9-12.9-34.2-12.9-47,0c-6.7,6.7-9.5,15.1-9.5,23.5c0,8.4,3.4,17.4,9.5,23.5l123.8,124.9C332.9,297.8,341.3,301.2,350.3,301.2
		L350.3,301.2z"/>
	<path d="M373.8,461.9L498.7,337c12.9-12.9,12.9-34.2,0-47s-34.2-12.9-47,0L350.8,390.8L250,290c-12.9-12.9-34.2-12.9-47,0
		c-6.7,6.7-9.5,15.1-9.5,23.5c0,8.4,3.4,17.4,9.5,23.5l124.9,124.9C339.6,474.8,360.9,474.8,373.8,461.9L373.8,461.9z"/>
	<path d="M373.8,632.1l124.9-124.9c12.9-12.9,12.9-34.2,0-47s-34.2-12.9-47,0L350.8,561L249.5,459.7c-12.9-12.9-34.2-12.9-47,0
		c-6.7,6.7-9.5,15.1-9.5,23.5c0,8.4,3.4,17.4,9.5,23.5l124.9,124.9C339.6,645,360.9,645,373.8,632.1L373.8,632.1z"/>
</g>
</svg>
