<?xml version="1.0" encoding="utf-8"?>
<!-- Generator: Adobe Illustrator 26.2.1, SVG Export Plug-In . SVG Version: 6.00 Build 0)  -->
<svg version="1.1" id="Calque_1" xmlns="http://www.w3.org/2000/svg" xmlns:xlink="http://www.w3.org/1999/xlink" x="0px" y="0px"
	 viewBox="0 0 700 700" style="enable-background:new 0 0 700 700;" xml:space="preserve">
<g>
	<path d="M468.1,132.4h79.3c-1-1.9-2.3-3.7-3.9-5.1l-81.3-75.4c-2.2-2.1-4.9-3.6-7.8-4.4l1.4,72.8C456,127,461.4,132.3,468.1,132.4
		L468.1,132.4z"/>
	<path d="M468.1,150.5c-7.9,0-15.5-3.2-21.2-8.7c-5.7-5.6-8.9-13.1-9.1-21l-1.4-73.8H191.1c-10.8,0-21.2,4.4-28.8,12
		c-7.6,7.7-11.9,18-11.9,28.9V531c0,10.8,4.3,21.2,11.9,28.9c7.6,7.7,18,12,28.8,12h317.8c10.8,0,21.2-4.4,28.8-12
		c7.6-7.7,11.9-18,11.9-28.9V150.5L468.1,150.5z M319.5,384.8c-1.7,1.7-4,2.7-6.4,2.7s-4.7-1-6.4-2.7l-32-32.2
		c-3.5-3.6-5.5-8.4-5.6-13.4c0-5,1.9-9.8,5.4-13.5l29.2-32.8c1.6-1.8,3.8-2.9,6.2-3c2.4-0.2,4.8,0.7,6.6,2.2c3.8,3.3,4.1,9,0.8,12.8
		l-29.7,33.4c-0.4,0.4-0.4,1.1,0,1.5l32.1,32.2C323.1,375.6,323,381.3,319.5,384.8L319.5,384.8z M380.8,270.8l-30.9,137.9
		c-0.9,4.1-4.6,7.1-8.8,7.1c-0.7,0-1.3-0.1-2-0.2c-2.3-0.5-4.4-2-5.7-4c-1.3-2-1.7-4.5-1.2-6.8l30.9-138c0.5-2.3,2-4.4,4-5.7
		c2-1.3,4.5-1.7,6.8-1.2C378.8,261,381.9,265.9,380.8,270.8L380.8,270.8z M431.9,352.6l-32.1,32.2c-1.7,1.7-4,2.7-6.4,2.7
		s-4.7-1-6.4-2.7c-3.5-3.5-3.5-9.3,0-12.8l32.1-32.2v0c0.4-0.4,0.4-1.1,0-1.5l-0.4-0.4l-29.4-33c-3.3-3.7-3-9.5,0.8-12.8
		c3.7-3.3,9.5-3,12.8,0.8l29.2,32.8c3.5,3.6,5.4,8.4,5.4,13.5C437.5,344.3,435.5,349.1,431.9,352.6L431.9,352.6z"/>
</g>
</svg>
