<?xml version="1.0" encoding="utf-8"?>
<!-- Generator: Adobe Illustrator 26.2.1, SVG Export Plug-In . SVG Version: 6.00 Build 0)  -->
<svg version="1.1" id="Calque_1" xmlns="http://www.w3.org/2000/svg" xmlns:xlink="http://www.w3.org/1999/xlink" x="0px" y="0px"
	 viewBox="0 0 700 700" style="enable-background:new 0 0 700 700;" xml:space="preserve">
<g>
	<path d="M216,499.2c-0.8,5.5,1.1,11,5,14.8c4.7,4.7,33.3,28.5,129,28.5s124.3-23.7,129-28.5c3.9-3.9,5.7-9.4,5-14.8L472.1,416h0
		c-3.9-26.4-17.1-50.4-37.2-67.9s-45.8-27.1-72.5-27.2h-24.8c-26.6,0.1-52.3,9.8-72.5,27.2S231.8,389.6,228,416L216,499.2z"/>
	<path d="M104.5,399.7l-5.1,28.9h0c-0.8,4.6,0.3,9.3,3,13.1c3.5,5.1,24.5,30.3,93.8,30.8l8.6-59.7c4.3-30.4,19-58.3,41.5-79.1
		c-27-15.6-59.9-17.1-88.1-3.9C130,342.9,110,369,104.5,399.7L104.5,399.7z"/>
	<path d="M597.6,441.7c2.7-3.8,3.8-8.5,3-13.1l-5.1-28.9h0c-5.4-30.7-25.5-56.8-53.7-69.9c-28.3-13.2-61.1-11.7-88.1,3.9
		c22.6,20.8,37.2,48.7,41.5,79.1l8.6,59.7C573.1,472,594.1,446.8,597.6,441.7L597.6,441.7z"/>
	<path d="M134.2,245c0,17,6.7,33.3,18.8,45.4c12,12,28.4,18.8,45.4,18.8c20.7,0.1,40.1-9.9,52-26.8c-11.1-18.3-17-39.3-17-60.7
		c0-9.4,1.2-18.9,3.5-28c-12.8-9.6-28.7-14.1-44.6-12.5c-15.9,1.5-30.7,8.9-41.4,20.7C140.1,213.6,134.2,229,134.2,245L134.2,245z"
		/>
	<path d="M501.7,180.8c-13.9,0-27.4,4.5-38.5,12.8c2.3,9.1,3.5,18.6,3.5,28c0,21.4-5.9,42.4-17,60.7c11.9,16.9,31.3,26.9,52,26.8
		c22.9,0,44.1-12.2,55.6-32.1c11.5-19.9,11.5-44.3,0-64.2C545.8,193.1,524.6,180.8,501.7,180.8L501.7,180.8z"/>
	<path d="M437.5,221.7c0,48.3-39.2,87.5-87.5,87.5s-87.5-39.2-87.5-87.5c0-48.3,39.2-87.5,87.5-87.5S437.5,173.3,437.5,221.7"/>
</g>
</svg>
